<svg width="32" height="32" viewBox="0 0 32 32" fill="none" xmlns="http://www.w3.org/2000/svg">
<rect width="32" height="32" rx="16" fill="black"/>
<path d="M19.8926 21.733L22.0509 11.5497C22.2419 10.6516 21.7274 10.3008 21.1387 10.5208L8.44531 15.414C7.57821 15.7507 7.59325 16.2369 8.2986 16.457L11.546 17.4708L19.0866 12.7243C19.4393 12.4892 19.7637 12.6218 19.4985 12.8569L13.3987 18.3661L13.1636 21.7179C13.2907 21.7184 13.4163 21.6895 13.5304 21.6335C13.6446 21.5776 13.7443 21.4961 13.8219 21.3954L15.4085 19.8671L18.7001 22.2916C19.3029 22.6293 19.7289 22.4534 19.8898 21.733H19.8926Z" fill="#00A4FF"/>
</svg>
