<svg width="48px" height="48px" viewBox="0 0 48 48" version="1.1" xmlns="http://www.w3.org/2000/svg">
  <g stroke="none" stroke-width="1">
    <path d="M24,0 C37.256,0 48,10.744 48,24 C48,37.256 37.256,48 24,48 C10.744,48 0,37.256 0,24 C0,10.744 10.744,0 24,0 Z M24,7.2 C14.7216162,7.2 7.2,14.7216162 7.2,24 C7.2,33.2783838 14.7216162,40.8 24,40.8 C33.2783838,40.8 40.8,33.2783838 40.8,24 C40.8,14.7216162 33.2783838,7.2 24,7.2 L24,7.2 Z" id="形状" fill-opacity="0.2" fill="#000000"></path>
    <path d="M40.97,40.97 C50.342,31.598 50.342,16.402 40.97,7.03 C31.598,-2.342 16.402,-2.342 7.03,7.03 C5.67535383,8.44398246 5.69932695,10.6814087 7.08395915,12.0660409 C8.46859134,13.450673 10.7060175,13.4746462 12.12,12.12 C16.3643152,7.87568469 22.5505394,6.21809083 28.3483819,7.771618 C34.1462244,9.32514518 38.6748548,13.8537756 40.228382,19.6516181 C41.7819092,25.4494606 40.1243153,31.6356848 35.88,35.88 C34.5253538,37.2939825 34.549327,39.5314087 35.9339591,40.9160409 C37.3185913,42.300673 39.5560175,42.3246462 40.97,40.97 L40.97,40.97 Z" fill="#FFFFFF">
      <animateTransform attributeName="transform" type="rotate" from="0 24 24" to="360 24 24" dur="1.5s" repeatCount="indefinite" />
    </path>
  </g>
</svg>